<?xml version="1.0" encoding="utf-8"?>
<!-- Generator: Adobe Illustrator 24.3.0, SVG Export Plug-In . SVG Version: 6.00 Build 0)  -->
<svg version="1.1" id="Layer_1" xmlns="http://www.w3.org/2000/svg" xmlns:xlink="http://www.w3.org/1999/xlink" x="0px" y="0px"
	 viewBox="0 0 800 800" enable-background="new 0 0 800 800" xml:space="preserve">
<g>
	<path fill="#787EBB" d="M400,72.034c71.208,0,129.139,57.931,129.139,129.139S471.208,330.313,400,330.313
		c-37.045,0-70.472-15.702-94.043-40.772v-0.319h-0.304c-21.56-23.087-34.792-54.043-34.792-88.048
		C270.861,129.965,328.792,72.034,400,72.034z"/>
	<path fill="#83C9EF" d="M297.901,307.872c26.556,25.422,62.522,41.091,102.099,41.091s75.543-15.669,102.1-41.091h122.466
		c7.262,0,13.168,5.908,13.168,13.17v245.447c0,7.262-5.906,13.168-13.168,13.168H175.434c-7.262,0-13.173-5.906-13.173-13.168
		V321.042c0-7.262,5.91-13.17,13.173-13.17H297.901z"/>
	<path fill="#BFC6E4" d="M111.893,277.855c0-9.487,7.718-17.207,17.207-17.207h135.65c4.49,10.17,10.068,19.755,16.632,28.574
		H175.434c-17.548,0-31.823,14.274-31.823,31.82v245.447c0,17.544,14.274,31.818,31.823,31.818h449.132
		c17.544,0,31.818-14.275,31.818-31.818V321.042c0-17.546-14.275-31.82-31.818-31.82H518.618
		c6.564-8.819,12.142-18.404,16.632-28.574H670.9c9.489,0,17.207,7.72,17.207,17.207v347.781H522.528H278.351H111.893V277.855z"/>
	<path fill="#83C9EF" d="M284.02,644.286h231.956v0.351c0,10.322-8.396,18.718-18.714,18.718H302.738
		c-10.322,0-18.718-8.396-18.718-18.718V644.286z"/>
	<path fill="#787EBB" d="M730.62,661.215c0,36.808-29.942,66.751-66.751,66.751H136.13c-36.808,0-66.751-29.942-66.751-66.751
		v-16.337c0-0.305,0.291-0.592,0.596-0.592h23.267H265.37v0.351c0,20.603,16.765,37.368,37.368,37.368h194.524
		c20.603,0,37.364-16.765,37.364-37.368v-0.351h172.131h23.864V661.215z"/>
	<g>
		<path fill="#1D1751" d="M732.414,625.636h-25.658V277.855c0-19.772-16.087-35.857-35.857-35.857H542.009
			c3.736-12.976,5.78-26.662,5.78-40.824c0-81.492-66.3-147.789-147.789-147.789c-81.49,0-147.789,66.298-147.789,147.789
			c0,14.162,2.044,27.848,5.78,40.824H129.1c-19.77,0-35.857,16.084-35.857,35.857v347.781H69.976
			c-10.614,0-19.246,8.633-19.246,19.242v16.337c0,47.09,38.311,85.401,85.401,85.401H663.87c47.09,0,85.401-38.311,85.401-85.401
			v-18.723C749.27,633.199,741.707,625.636,732.414,625.636z M400,72.034c71.208,0,129.139,57.931,129.139,129.139
			S471.208,330.313,400,330.313c-37.045,0-70.472-15.702-94.043-40.772v-0.319h-0.304c-21.56-23.087-34.792-54.043-34.792-88.048
			C270.861,129.965,328.792,72.034,400,72.034z M297.901,307.872c26.556,25.422,62.522,41.091,102.099,41.091
			s75.543-15.669,102.1-41.091h122.466c7.262,0,13.168,5.908,13.168,13.17v245.447c0,7.262-5.906,13.168-13.168,13.168H175.434
			c-7.262,0-13.173-5.906-13.173-13.168V321.042c0-7.262,5.91-13.17,13.173-13.17H297.901z M111.893,277.855
			c0-9.487,7.718-17.207,17.207-17.207h135.65c4.49,10.17,10.068,19.755,16.632,28.574H175.434
			c-17.548,0-31.823,14.274-31.823,31.82v245.447c0,17.544,14.274,31.818,31.823,31.818h449.132
			c17.544,0,31.818-14.275,31.818-31.818V321.042c0-17.546-14.275-31.82-31.818-31.82H518.618
			c6.564-8.819,12.142-18.404,16.632-28.574H670.9c9.489,0,17.207,7.72,17.207,17.207v347.781H522.528H278.351H111.893V277.855z
			 M284.02,644.286h231.956v0.351c0,10.322-8.396,18.718-18.714,18.718H302.738c-10.322,0-18.718-8.396-18.718-18.718V644.286z
			 M730.62,661.215c0,36.808-29.942,66.751-66.751,66.751H136.13c-36.808,0-66.751-29.942-66.751-66.751v-16.337
			c0-0.305,0.291-0.592,0.596-0.592h23.267H265.37v0.351c0,20.603,16.765,37.368,37.368,37.368h194.524
			c20.603,0,37.364-16.765,37.364-37.368v-0.351h172.131h23.864V661.215z"/>
	</g>
	<g>
		<path fill="#1D1751" d="M284.083,363.623c7.244,3.128,14.487,6.256,21.732,9.384c1.057,0.457,3.919,2.185,5.928,3.067
			c1.956,13.621,5.634,27.279,8.38,40.728c3.512,17.197,7.022,34.394,10.534,51.592l1.608,7.972c0.091,1.134,0.347,2.22,0.688,3.272
			c1.817,8.897,3.634,17.795,5.45,26.692c0.81,3.972,5.101,6.846,8.992,6.846c47.544,0,95.087,0,142.63,0
			c12.001,0,12.021-18.65,0-18.65c-45.012,0-90.023,0-135.036,0c-0.289-1.413-0.577-2.826-0.866-4.238l132.775-7.436l0.209-0.016
			c13.072-1.031,14.926-11.162,16.146-18.775l17.28-68.135v-1.163c0-8.729-7.103-15.829-15.832-15.829H332.826
			c-0.889-4.567-2.083-8.851-3.936-12.228c-6.078-11.081-24.302-14.396-35.393-19.185
			C282.592,342.81,273.083,358.872,284.083,363.623z M500.873,397.582l-15.8,62.298l-0.168,0.822
			c-0.264,1.639-0.487,2.798-0.665,3.618l-133.865,7.499l-14.083-68.975c-0.314-1.63-0.587-3.404-0.839-5.261H500.873z"/>
	</g>
	<g>
		<path fill="#1D1751" d="M381.464,515.208c-13.61,0-24.683,11.071-24.683,24.681c0,13.61,11.073,24.683,24.683,24.683
			c13.61,0,24.683-11.074,24.683-24.683C406.147,526.28,395.073,515.208,381.464,515.208z M381.464,545.922
			c-3.328,0-6.033-2.707-6.033-6.033c0-3.326,2.705-6.031,6.033-6.031s6.033,2.705,6.033,6.031
			C387.497,543.216,384.792,545.922,381.464,545.922z"/>
	</g>
	<g>
		<path fill="#1D1751" d="M452.162,515.208c-13.61,0-24.683,11.071-24.683,24.681c0,13.61,11.074,24.683,24.683,24.683
			c13.61,0,24.683-11.074,24.683-24.683C476.845,526.28,465.772,515.208,452.162,515.208z M452.162,545.922
			c-3.328,0-6.033-2.707-6.033-6.033c0-3.326,2.705-6.031,6.033-6.031c3.328,0,6.033,2.705,6.033,6.031
			C458.195,543.216,455.49,545.922,452.162,545.922z"/>
	</g>
	<g>
		<path fill="#1D1751" d="M327.43,191.197c6.598,5.054,14.502,7.718,22.68,7.718c1.657,0,3.328-0.109,4.999-0.332
			c9.912-1.314,18.723-6.411,24.802-14.352c6.074-7.941,8.697-17.771,7.381-27.681c-1.311-9.912-6.411-18.718-14.352-24.799
			c-7.936-6.079-17.789-8.701-27.679-7.383c-9.912,1.314-18.723,6.411-24.802,14.349c-6.074,7.941-8.697,17.771-7.381,27.682
			C314.39,176.31,319.49,185.119,327.43,191.197z M335.271,150.054c3.051-3.982,7.467-6.541,12.44-7.201h0.004
			c0.838-0.112,1.676-0.166,2.509-0.166c4.102,0,8.068,1.336,11.383,3.872c3.979,3.051,6.539,7.467,7.199,12.442
			c0.66,4.974-0.656,9.908-3.706,13.892c-3.051,3.984-7.467,6.543-12.439,7.203c-4.995,0.651-9.908-0.658-13.897-3.706
			c-3.98-3.051-6.538-7.47-7.199-12.444C330.905,158.972,332.22,154.038,335.271,150.054z"/>
	</g>
	<g>
		<path fill="#1D1751" d="M412.703,245.797c1.316,9.912,6.416,18.721,14.352,24.799c6.602,5.052,14.507,7.715,22.68,7.715
			c1.662,0,3.333-0.109,5.004-0.332c9.912-1.314,18.723-6.411,24.801-14.35c6.074-7.941,8.697-17.771,7.381-27.684
			c-2.714-20.46-21.578-34.885-42.031-32.182C424.428,206.478,409.99,225.333,412.703,245.797z M449.826,222.086
			c9.266,0,17.357,6.882,18.609,16.314c0.66,4.974-0.656,9.908-3.706,13.892c-3.051,3.982-7.467,6.541-12.444,7.201
			c-4.963,0.658-9.903-0.656-13.892-3.706c-3.984-3.051-6.543-7.47-7.203-12.442c-1.361-10.27,5.887-19.732,16.15-21.095
			C448.178,222.141,449.007,222.086,449.826,222.086z"/>
	</g>
	<path fill="#1D1751" d="M369.354,256.422c25.23-32.952,50.459-65.905,75.689-98.858c7.292-9.526-8.898-18.824-16.105-9.413
		c-25.228,32.953-50.458,65.905-75.687,98.858C345.957,256.535,362.149,265.834,369.354,256.422z"/>
	<path fill="#BFC6E4" d="M500.873,397.582l-15.8,62.298l-0.168,0.822c-0.264,1.639-0.487,2.798-0.665,3.618l-133.865,7.499
		l-14.083-68.975c-0.314-1.63-0.587-3.404-0.839-5.261H500.873z"/>
	<path fill="#83C9EF" d="M335.271,150.054c3.051-3.982,7.467-6.541,12.44-7.201h0.004c0.838-0.112,1.676-0.166,2.509-0.166
		c4.102,0,8.068,1.336,11.383,3.872c3.979,3.051,6.539,7.467,7.199,12.442c0.66,4.974-0.656,9.908-3.706,13.892
		c-3.051,3.984-7.467,6.543-12.439,7.203c-4.995,0.651-9.908-0.658-13.897-3.706c-3.98-3.051-6.538-7.47-7.199-12.444
		C330.905,158.972,332.22,154.038,335.271,150.054z"/>
	<path fill="#83C9EF" d="M449.826,222.086c9.266,0,17.357,6.882,18.609,16.314c0.66,4.974-0.656,9.908-3.706,13.892
		c-3.051,3.982-7.467,6.541-12.444,7.201c-4.963,0.658-9.903-0.656-13.892-3.706c-3.984-3.051-6.543-7.47-7.203-12.442
		c-1.361-10.27,5.887-19.732,16.15-21.095C448.178,222.141,449.007,222.086,449.826,222.086z"/>
	<path fill="#787EBB" d="M381.464,545.922c-3.328,0-6.033-2.707-6.033-6.033c0-3.326,2.705-6.031,6.033-6.031
		s6.033,2.705,6.033,6.031C387.497,543.216,384.792,545.922,381.464,545.922z"/>
	<path fill="#787EBB" d="M452.162,545.922c-3.328,0-6.033-2.707-6.033-6.033c0-3.326,2.705-6.031,6.033-6.031
		c3.328,0,6.033,2.705,6.033,6.031C458.195,543.216,455.49,545.922,452.162,545.922z"/>
</g>
</svg>
